<svg id="visual" viewBox="0 0 900 600" width="900" height="600" xmlns="http://www.w3.org/2000/svg" xmlns:xlink="http://www.w3.org/1999/xlink" version="1.1"><rect x="0" y="0" width="900" height="600" fill="#ffffff"></rect><defs><linearGradient id="grad1_0" x1="33.3%" y1="0%" x2="100%" y2="100%"><stop offset="20%" stop-color="#ffffff" stop-opacity="1"></stop><stop offset="80%" stop-color="#ffffff" stop-opacity="1"></stop></linearGradient></defs><defs><linearGradient id="grad2_0" x1="0%" y1="0%" x2="66.7%" y2="100%"><stop offset="20%" stop-color="#ffffff" stop-opacity="1"></stop><stop offset="80%" stop-color="#ffffff" stop-opacity="1"></stop></linearGradient></defs><g transform="translate(900, 0)"><path d="M0 216.3C-42.9 213.6 -85.7 210.8 -108.2 187.3C-130.6 163.9 -132.6 119.7 -147.2 85C-161.8 50.3 -189.1 25.2 -216.3 0L0 0Z" fill="#162539"></path></g><g transform="translate(0, 600)"><path d="M0 -216.3C44.4 -214.4 88.7 -212.6 108.2 -187.3C127.6 -162.1 122.1 -113.6 136 -78.5C149.8 -43.4 183.1 -21.7 216.3 0L0 0Z" fill="#162539"></path></g></svg>